<?xml version="1.0" standalone="no"?>
<!DOCTYPE svg PUBLIC "-//W3C//DTD SVG 20010904//EN"
 "http://www.w3.org/TR/2001/REC-SVG-20010904/DTD/svg10.dtd">
<svg version="1.0" xmlns="http://www.w3.org/2000/svg"
 width="960.000000pt" height="960.000000pt" viewBox="0 0 960.000000 960.000000"
 preserveAspectRatio="xMidYMid meet">
<metadata>
Created by potrace 1.11, written by Peter Selinger 2001-2013
</metadata>
<g transform="translate(0.000000,960.000000) scale(0.100000,-0.100000)"
fill="#000000" stroke="none">
<path d="M5108 9595 c-2 -1 -43 -5 -93 -9 -199 -14 -338 -36 -508 -77 -117
-29 -290 -84 -365 -117 -20 -9 -39 -16 -42 -17 -12 -4 -160 -79 -204 -104
-114 -66 -239 -164 -346 -272 -127 -128 -118 -118 -187 -215 -237 -335 -313
-650 -238 -989 4 -16 8 -34 9 -40 1 -5 4 -14 7 -20 3 -5 12 -31 19 -58 7 -26
17 -50 21 -53 5 -3 9 -11 9 -18 0 -17 42 -106 78 -166 15 -25 36 -60 47 -79
109 -183 337 -432 559 -609 39 -31 73 -59 76 -62 5 -5 39 -30 87 -61 24 -17
24 -17 -49 -33 -40 -9 -84 -18 -98 -20 -14 -3 -25 -5 -25 -6 0 -1 -11 -4 -25
-7 -39 -7 -55 -11 -55 -13 0 -1 -10 -3 -22 -6 -103 -19 -612 -183 -728 -235
-24 -10 -78 -32 -85 -34 -3 0 -22 -8 -42 -18 -21 -9 -53 -23 -70 -31 -171 -73
-349 -163 -533 -269 -67 -39 -343 -216 -368 -237 -7 -5 -46 -36 -87 -67 -41
-32 -76 -61 -78 -65 -2 -4 -8 -8 -13 -8 -5 0 -24 -15 -43 -32 -18 -18 -57 -53
-86 -78 -92 -78 -330 -322 -330 -338 0 -4 -13 -20 -28 -37 -39 -42 -122 -152
-152 -200 -13 -22 -27 -42 -30 -45 -4 -3 -28 -41 -54 -85 -26 -44 -51 -87 -56
-95 -20 -32 -122 -246 -126 -264 -2 -10 -7 -23 -12 -30 -8 -9 -31 -71 -38
-101 -2 -5 -12 -37 -24 -70 -12 -33 -24 -67 -26 -75 -2 -8 -14 -57 -28 -107
-13 -51 -22 -93 -20 -93 2 0 0 -10 -5 -23 -5 -12 -12 -42 -15 -67 -3 -25 -8
-56 -11 -70 -2 -14 -6 -38 -9 -54 -15 -83 -21 -215 -20 -426 0 -195 7 -385 14
-385 1 0 3 -16 5 -35 2 -19 6 -51 9 -70 3 -19 8 -53 11 -75 3 -22 20 -103 36
-180 32 -148 33 -152 41 -175 64 -200 100 -305 119 -350 45 -105 169 -345 214
-413 25 -38 45 -71 45 -73 0 -3 31 -47 90 -124 68 -89 144 -177 224 -260 81
-83 118 -117 236 -221 14 -12 50 -40 80 -63 30 -22 57 -44 60 -47 3 -3 46 -33
97 -67 221 -148 380 -234 678 -366 28 -13 53 -23 58 -24 4 -1 22 -8 40 -15 17
-8 57 -22 87 -32 30 -10 60 -20 65 -24 6 -3 16 -6 23 -7 12 -2 91 -27 137 -44
11 -4 36 -12 55 -18 48 -15 360 -94 385 -97 11 -1 31 -5 45 -9 14 -3 36 -8 50
-10 14 -3 36 -7 50 -10 22 -5 73 -14 125 -21 46 -7 161 -23 215 -31 19 -2 49
-6 65 -9 17 -2 59 -7 95 -9 36 -3 103 -9 150 -13 175 -14 444 -9 500 11 8 3
31 7 50 10 52 8 79 14 114 25 17 6 46 13 65 16 19 3 42 10 52 16 11 5 19 8 19
5 0 -10 438 135 495 165 12 5 27 11 35 13 8 1 41 15 74 29 32 15 61 27 63 27
9 0 398 193 403 200 3 3 25 16 50 29 25 12 59 31 75 41 61 39 80 50 98 56 9 3
17 10 17 15 0 5 5 9 11 9 10 0 269 167 279 180 3 4 33 27 68 51 115 81 127 90
137 102 6 7 22 20 37 29 24 16 170 137 268 223 68 59 407 401 476 479 38 43
77 87 87 97 9 11 17 21 17 24 0 3 8 13 18 23 50 53 189 230 274 351 26 36 51
71 57 78 6 7 11 16 11 22 0 5 3 11 8 13 7 3 53 67 82 113 8 14 47 75 87 137
39 62 79 127 90 145 52 91 171 303 188 338 11 22 23 42 26 45 4 3 10 15 13 28
4 13 23 50 41 83 19 33 34 62 35 64 0 5 36 84 99 218 22 48 41 89 41 91 0 2 8
21 17 42 9 22 17 41 18 44 1 3 9 22 18 44 9 21 17 40 17 42 0 2 11 28 25 58
14 30 25 61 25 68 0 8 4 18 10 24 5 5 11 25 12 44 2 26 -1 35 -15 38 -9 2 -72
-24 -138 -57 -113 -57 -225 -100 -309 -118 -42 -9 -225 -9 -260 0 -14 4 -34 9
-45 11 -126 27 -356 205 -450 350 -10 14 -21 26 -25 26 -4 0 -11 -21 -15 -47
-5 -27 -10 -52 -11 -58 -2 -5 -6 -23 -9 -40 -3 -16 -12 -55 -20 -86 -8 -30
-17 -66 -19 -80 -2 -13 -5 -25 -7 -26 -1 -2 -2 -6 -3 -10 -2 -5 -8 -26 -14
-48 -6 -22 -13 -51 -16 -65 -2 -14 -5 -25 -6 -25 -2 0 -7 -19 -15 -57 -3 -15
-9 -38 -14 -50 -5 -13 -9 -26 -10 -30 -1 -4 -9 -27 -17 -50 -14 -38 -20 -59
-27 -93 -2 -5 -6 -16 -10 -23 -5 -6 -6 -12 -3 -12 3 0 -2 -16 -10 -35 -8 -19
-11 -35 -7 -35 5 0 3 -4 -2 -8 -6 -4 -28 -59 -49 -122 -39 -114 -132 -359
-166 -435 -85 -191 -154 -341 -159 -345 -4 -3 -15 -25 -26 -50 -11 -25 -27
-58 -37 -75 -9 -16 -29 -52 -43 -80 -14 -27 -39 -72 -56 -100 -16 -27 -32 -58
-36 -67 -3 -10 -9 -18 -14 -18 -5 0 -8 -3 -7 -8 2 -7 -35 -70 -73 -124 -10
-15 -19 -30 -19 -33 0 -3 -15 -27 -33 -53 -18 -26 -57 -83 -87 -127 -30 -44
-57 -82 -61 -85 -3 -3 -25 -32 -49 -65 -24 -33 -50 -67 -59 -76 -9 -8 -25 -28
-36 -43 -21 -29 -26 -35 -117 -138 -85 -96 -320 -328 -333 -328 -2 0 -20 -15
-40 -32 -38 -36 -42 -40 -100 -83 -22 -16 -49 -37 -59 -47 -11 -10 -23 -18
-27 -18 -4 0 -14 -6 -21 -13 -14 -14 -178 -120 -245 -158 -115 -67 -285 -148
-386 -185 -44 -16 -248 -83 -276 -90 -58 -15 -253 -55 -286 -59 -22 -3 -51 -7
-65 -10 -96 -19 -415 -26 -550 -12 -106 11 -144 16 -170 23 -33 10 -29 9 -75
18 -159 31 -443 165 -571 269 -143 116 -224 198 -324 327 -52 67 -115 160
-135 200 -10 19 -21 37 -25 40 -18 13 -200 414 -200 442 0 4 -4 17 -9 30 -5
13 -9 25 -9 28 0 3 -6 19 -12 35 -7 17 -16 44 -20 60 -5 17 -18 62 -29 100
-21 68 -61 230 -66 270 -2 11 -4 20 -5 20 -2 0 -6 20 -14 75 -3 19 -10 62 -16
95 -6 33 -12 71 -14 85 -3 14 -5 25 -6 25 0 0 -3 23 -6 50 -3 28 -7 64 -9 80
-11 86 -17 156 -18 212 -1 35 -4 63 -7 63 -8 0 -13 196 -14 470 0 233 6 379
20 445 10 49 12 60 14 60 1 0 3 9 5 20 6 45 17 94 36 175 12 47 23 96 25 109
3 14 14 57 25 97 11 40 22 82 24 92 2 10 11 43 20 73 9 30 18 65 21 78 3 13
11 39 19 57 8 19 12 34 9 34 -3 0 0 9 6 21 6 11 13 28 15 37 12 61 165 457
193 500 8 12 12 22 9 22 -7 0 131 272 167 329 15 22 26 45 26 51 0 5 4 10 8
10 5 0 14 11 20 24 16 37 154 226 164 226 4 0 8 5 8 11 0 12 168 181 235 237
66 56 255 178 340 220 118 59 222 105 232 103 2 0 24 9 49 20 26 11 49 17 52
14 3 -3 10 -1 16 4 9 8 38 17 111 37 42 11 188 43 225 48 19 3 46 8 59 10 24
5 125 16 192 20 19 1 39 4 45 7 5 2 50 4 100 4 70 -1 88 2 80 11 -6 7 -14 10
-17 8 -4 -2 -12 3 -19 11 -7 8 -19 15 -26 15 -8 0 -14 5 -14 10 0 6 -5 10 -11
10 -32 0 -319 260 -319 289 0 5 -4 11 -8 13 -12 5 -83 114 -119 183 -33 64
-82 201 -90 250 -2 17 -6 36 -9 43 -24 73 -24 341 2 477 35 191 110 401 215
602 54 104 129 231 154 260 5 7 26 35 45 64 19 28 50 66 68 85 17 19 32 37 32
40 0 11 153 150 228 206 76 58 260 155 327 174 185 50 236 58 400 58 89 0 143
-4 250 -19 25 -4 119 -25 175 -39 52 -14 213 -69 237 -81 15 -8 31 -15 34 -15
11 0 208 -97 278 -135 188 -106 481 -309 481 -335 0 -4 -15 -7 -32 -8 -34 -1
-87 -10 -98 -17 -4 -2 -22 -7 -41 -10 -19 -3 -72 -24 -119 -47 -161 -79 -245
-197 -262 -373 -1 -5 2 -41 6 -80 8 -82 26 -148 62 -221 26 -53 103 -144 122
-144 6 0 12 -4 14 -8 4 -12 106 -58 143 -66 17 -4 41 -9 55 -12 49 -11 186
-10 258 3 58 10 87 21 142 58 154 102 231 242 230 416 -1 87 -5 129 -20 184
-6 22 -12 45 -13 50 -15 62 -87 203 -140 275 -54 72 -254 270 -273 270 -7 0
-14 3 -16 8 -5 12 -114 92 -126 92 -5 0 -12 3 -14 8 -5 11 -115 82 -127 82 -6
0 -11 3 -11 8 0 4 -10 12 -23 17 -47 22 -112 60 -119 70 -5 7 -8 7 -8 0 0 -6
-3 -6 -8 1 -6 9 -156 85 -262 132 -25 11 -65 29 -90 40 -91 40 -329 132 -344
132 -8 0 -17 4 -20 9 -3 4 -29 12 -58 16 -29 5 -55 9 -58 10 -3 0 -41 5 -85 9
-44 5 -96 10 -115 13 -42 4 -508 12 -512 8z"/>
<path d="M7784 8383 c8 -15 15 -44 21 -88 2 -16 7 -41 10 -55 15 -66 4 -264
-16 -302 -5 -10 -7 -18 -5 -18 6 0 -44 -120 -56 -135 -5 -5 -21 -26 -36 -45
-30 -40 -95 -98 -131 -119 -58 -32 -164 -83 -181 -86 -10 -2 -27 -8 -37 -13
-10 -6 -48 -18 -83 -27 -97 -24 -96 -23 -67 -45 14 -11 28 -20 32 -20 4 0 20
-9 36 -21 16 -11 29 -18 29 -14 0 3 41 -15 90 -41 99 -52 176 -125 233 -219
69 -118 147 -313 167 -425 31 -164 27 -440 -9 -625 -6 -27 -12 -63 -15 -80 -3
-16 -7 -39 -9 -50 -3 -11 -8 -40 -13 -65 -9 -51 -11 -59 -14 -62 -2 -3 -6 -21
-14 -58 -10 -43 -15 -63 -31 -125 -14 -52 -68 -236 -80 -273 -3 -7 -4 -13 -4
-15 0 -3 -107 -308 -119 -337 -5 -14 -22 -56 -37 -95 -15 -38 -31 -79 -36 -90
-4 -11 -20 -49 -34 -85 -27 -67 -49 -120 -66 -155 -5 -11 -28 -64 -51 -117
-24 -53 -47 -97 -52 -98 -6 0 -11 12 -13 27 -2 16 -8 57 -13 93 -11 69 -20
128 -25 170 -1 14 -8 54 -15 90 -7 36 -13 74 -15 85 -4 29 -16 94 -21 119 -16
76 -21 106 -16 111 3 3 1 5 -4 5 -5 0 -11 12 -12 28 -1 15 -18 86 -38 157 -19
72 -37 137 -39 145 -2 8 -4 16 -5 18 -2 1 -3 5 -5 10 -1 4 -5 21 -10 37 -4 17
-18 54 -31 83 -13 29 -23 55 -23 57 0 3 -8 19 -16 35 -8 16 -15 32 -15 35 0
29 -223 466 -372 724 -26 46 -48 85 -48 87 0 6 -101 174 -104 174 -6 0 -84
-134 -84 -144 0 -5 -5 -12 -10 -15 -5 -3 -19 -24 -31 -46 -31 -58 -62 -109
-70 -115 -3 -3 -17 -29 -31 -57 -14 -29 -28 -53 -32 -53 -5 0 -8 -4 -8 -9 0
-5 -16 -38 -36 -73 -113 -198 -261 -490 -296 -583 -62 -167 -192 -597 -202
-670 -2 -11 -6 -27 -9 -35 -7 -20 -45 -177 -51 -217 -4 -18 -11 -45 -17 -60
-6 -15 -10 -29 -10 -30 1 -2 1 -4 0 -5 0 -2 -2 -16 -4 -33 -8 -57 -27 -125
-36 -125 -5 0 -9 5 -9 12 0 23 -160 528 -170 538 -3 3 -6 10 -7 15 -5 22 -53
156 -90 250 -43 107 -50 126 -52 137 -2 15 -116 233 -124 239 -5 3 -8 9 -7 13
2 8 -51 119 -60 126 -4 3 -27 43 -52 90 -25 47 -62 114 -83 149 -47 84 -62
139 -49 188 7 30 22 47 74 86 36 26 70 51 75 55 6 4 20 15 33 24 l23 16 -33 4
c-90 14 -306 -7 -488 -47 -41 -9 -82 -18 -90 -20 -8 -2 -44 -11 -80 -20 -36
-9 -72 -18 -80 -20 -18 -4 -218 -72 -240 -82 -8 -3 -17 -7 -20 -8 -66 -23
-240 -113 -240 -125 0 -3 21 -6 48 -6 49 0 140 -11 164 -18 7 -3 27 -7 43 -10
66 -10 235 -74 235 -88 0 -5 7 -8 15 -8 17 0 195 -172 195 -188 0 -6 3 -12 8
-14 10 -4 112 -134 112 -142 0 -9 43 -70 53 -74 4 -2 7 -10 7 -18 0 -8 5 -14
10 -14 6 0 10 -5 10 -11 0 -6 16 -37 35 -69 49 -80 156 -298 200 -405 20 -49
43 -103 50 -120 41 -94 166 -470 195 -585 6 -25 14 -52 17 -60 7 -18 10 -29
16 -55 3 -11 10 -40 17 -65 7 -25 14 -52 16 -60 2 -8 10 -42 18 -76 14 -56 18
-76 32 -144 3 -14 9 -41 14 -60 5 -19 11 -47 14 -62 2 -15 7 -31 9 -35 3 -5 8
-24 11 -43 3 -19 10 -60 16 -90 6 -30 13 -68 16 -85 2 -16 9 -50 14 -75 6 -25
11 -52 11 -60 1 -8 5 -28 9 -45 5 -16 12 -55 15 -85 3 -30 8 -62 10 -70 3 -8
7 -35 10 -59 3 -24 7 -47 9 -50 3 -3 7 -31 10 -61 4 -30 8 -66 10 -80 5 -27
16 -106 22 -155 2 -16 6 -41 8 -55 7 -47 18 -135 22 -170 11 -125 15 -167 20
-181 2 -9 7 -47 10 -85 3 -38 7 -87 9 -109 2 -22 6 -69 10 -105 14 -155 28
-358 29 -427 1 -60 15 -73 17 -15 1 20 2 48 4 62 5 45 17 174 20 220 2 25 6
77 10 115 3 39 7 93 10 120 7 93 16 190 20 225 2 19 7 67 10 105 3 39 8 86 10
105 3 19 7 59 10 88 3 28 7 75 10 103 3 28 8 56 12 62 4 6 1 7 -7 2 -9 -5 -11
-4 -6 3 8 14 15 56 21 132 4 57 13 136 20 180 2 14 7 57 10 95 3 39 8 77 10
85 2 8 7 44 11 80 3 36 8 76 10 90 1 14 5 48 9 75 3 28 8 61 10 75 3 14 7 50
11 80 3 30 7 66 10 80 2 14 6 45 9 70 3 25 8 55 11 68 2 12 7 42 10 66 2 24 7
55 9 67 3 13 10 53 15 88 6 35 17 94 25 132 8 38 17 81 20 96 2 16 21 93 41
173 45 184 41 166 59 230 9 30 21 71 26 90 5 19 11 42 14 50 10 37 96 287 104
305 6 11 21 52 35 90 23 65 85 219 126 310 10 22 21 50 24 63 4 12 12 22 17
22 5 0 9 7 9 15 0 17 77 175 86 175 15 0 183 -233 183 -254 -1 -5 3 -12 8 -15
13 -10 57 -82 82 -136 22 -46 98 -267 105 -304 1 -9 8 -34 14 -56 6 -22 13
-51 16 -65 3 -14 12 -52 21 -85 8 -33 17 -73 20 -90 3 -16 10 -46 15 -65 5
-19 11 -46 14 -60 3 -14 12 -56 21 -95 8 -38 17 -81 20 -95 3 -14 7 -36 10
-50 3 -14 7 -36 10 -50 2 -14 11 -59 20 -100 9 -41 18 -84 19 -95 2 -11 6 -35
10 -53 5 -19 9 -43 11 -55 2 -12 10 -62 19 -112 9 -49 19 -101 21 -115 3 -14
7 -36 10 -50 5 -26 20 -113 29 -165 3 -16 14 -84 26 -150 11 -66 23 -133 25
-150 2 -16 9 -59 15 -95 6 -36 12 -75 13 -87 1 -25 17 -32 17 -8 0 8 4 23 9
33 11 21 54 162 56 182 0 9 3 20 7 25 5 9 48 147 52 170 2 6 17 57 35 115 19
58 34 110 36 115 1 6 4 17 7 25 3 8 23 65 43 125 35 104 106 296 126 340 4 11
18 45 29 75 11 30 25 64 29 75 5 11 30 74 56 140 26 66 52 131 58 145 5 14 11
30 13 35 1 6 20 56 42 111 22 56 42 113 46 127 3 15 11 39 18 54 6 15 12 30
13 33 1 3 4 12 8 20 16 41 60 167 64 185 3 11 7 27 11 35 3 8 6 17 7 20 1 3 5
12 8 20 26 62 214 640 209 644 -3 3 1 6 8 6 7 0 11 3 7 6 -3 4 0 23 8 43 8 20
16 48 19 63 3 15 7 31 10 36 6 10 82 296 90 337 3 17 7 41 10 55 16 72 17 78
31 175 3 19 8 52 11 73 8 46 8 227 0 267 -3 17 -8 59 -11 95 -3 36 -10 85 -15
110 -5 25 -12 61 -15 80 -8 58 -15 94 -21 110 -3 8 -8 26 -10 40 -3 14 -18 69
-35 123 -46 149 -131 322 -282 572 -25 42 -82 120 -89 123 -5 2 -8 9 -8 16 0
7 -10 21 -22 32 -12 10 -18 13 -14 7z"/>
</g>
</svg>
