<?xml version="1.0" encoding="utf-8"?>
<!-- Generator: Adobe Illustrator 22.0.0, SVG Export Plug-In . SVG Version: 6.00 Build 0)  -->
<svg version="1.1" id="Layer_1" xmlns="http://www.w3.org/2000/svg" xmlns:xlink="http://www.w3.org/1999/xlink" x="0px" y="0px"
	 viewBox="0 0 103.6 119.5" style="enable-background:new 0 0 103.6 119.5;" xml:space="preserve">
<style type="text/css">
	.st0{fill:#0256A6;}
</style>
<title>ew-logo</title>
<g id="Layer_2_1_">
	<g id="Layer_2-2">
		<path class="st0" d="M103.3,70.7c-17.6,45.3-54,48.8-54,48.8S4,120.7,0.2,82.8s42.4-45.6,42.4-45.6s-16.2-10.4-11-22.9
			C39.4-4.3,65.5,0.6,65.5,0.6s16.2,5.2,19.6,13s-3,10.1-3,10.1s-7.7,2-8.8-4.9s6.9-7.2,6.9-7.2S58.5-7.6,46.7,14.1
			c-9.8,18,5.1,24.7,5.1,24.7s-12.7-0.8-21,7.9S19.6,73.9,19.6,73.9s-4,46.2,28.3,42.1S88,66.7,88,66.7
			C96.2,78.5,105.3,65.5,103.3,70.7z"/>
		<path class="st0" d="M95.6,33.2c-0.2,2.9-0.8,5.7-1.6,8.5C92.6,46.8,88.2,59,88.2,59s-4,9.9-4.8,12.6s-2.7,8.9-2.7,8.9
			s-3.8-24.6-6.4-29S71.1,47,71.1,47c-3.9,7.8-6.5,16.2-7.7,24.8c-2,14.3-3.1,30-3.1,30S58.8,60.7,45.1,47c-2.5-2.5-7.5-2.4-7.5-2.4
			s1.5-1.3,6.7-2.8c6.5-1.8,9.3-1.2,9.3-1.2l-2.3,1.6c-0.7,1-0.4,1.7,0.2,2.8c1.4,2.4,2.7,4.8,3.9,7.3c1.7,4.1,3.2,8.4,4.4,12.7
			c0,0,2.4-11.5,4.6-16.2s6.9-12.4,6.9-12.4s5.5,9.2,7.4,14.4c2.1,5.9,3,15.1,3,14.5c0,0,10.6-21.7,6.8-31.3
			c-2.7-7.1-4.8-5.5-7.1-7.5c1.9-0.4,3.7-1.1,5.3-2.1c4.3-3.2,2.3-9.2,2.2-9.5c1.8,2.4,3.3,4.9,4.5,7.6
			C95.3,26.6,95.6,33.2,95.6,33.2z"/>
	</g>
</g>
</svg>
